# xmcd
#
# Track frame offsets:
#	150
#	16051
#	46390
#	60715
#	93043
#	110654
#	153799
#	171260
#	210425
#	224781
#	253910
#	268853
#	302156
#	317916
#
# Disc length: 4699 seconds
#
# Revision: 0
# Processed by: cddbd v1.5.1PL0 Copyright (c) Steve Scherf et al.
# Submitted via: EasyCDDAExtractor 8.0.2.1
#
DISCID=c712590e
DTITLE=Various Artist - SPINNIN RECORDS PROMO MUSIC SERVICE KWIECIEÑ 2005
DYEAR=2005
DGENRE=Dance
TTITLE0=STEVE FARRIS - 2 GETHER(RADIO MIX)
TTITLE1=STEVE FARRIS - 2 GETHER(CLUB MIX)
TTITLE2=RANDY KATANA - FANCY FAIR'05(RADIO EDIT)
TTITLE3=RANDY KATANA - FANCY FAIR'05(FANCY EDIT)
TTITLE4=E-CRAIG - NEVER FALL IN LOVE AGAIN(RADIO MIX)
TTITLE5=E-CRAIG - NEVER FALL IN LOVE AGAIN(212MIX)
TTITLE6=SAM SHARP - DEEP(IN-DEEP RADIO CUT)
TTITLE7=SAM SHARP - DEEP(IN-DEEP MIX)
TTITLE8=TUNE-IN - HIGH ON A HAPPY VIBE(RADIO MIX)
TTITLE9=TUNE-IN - HIGH ON A HAPPY VIBE(CLUB MIX)
TTITLE10=8BALL - PHUNKY MUZIC(RADIO EDIT)
TTITLE11=8BALL - PHUNKY MUZIC(CLUB MIX)
TTITLE12=SPIDER-VS MARC VAN BEKKUN - ONE(RADIO EDIT)
TTITLE13=SPIDER-VS MARC VAN BEKKUN - ONE(ORIGINAL MIX)
EXTD=
EXTT0=
EXTT1=
EXTT2=
EXTT3=
EXTT4=
EXTT5=
EXTT6=
EXTT7=
EXTT8=
EXTT9=
EXTT10=
EXTT11=
EXTT12=
EXTT13=
PLAYORDER=
